HIERARCHY
ROOT Hips
{
	OFFSET	0.00	0.00	0.00
	CHANNELS 6 Xposition Yposition Zposition Zrotation Xrotation Yrotation
	JOINT Spine
	{
		OFFSET	 0.00	0.01	 0.00
		CHANNELS 3 Zrotation Xrotation Yrotation
		JOINT Spine1
		{
			OFFSET	 0.00	 2.45913012437421	 0.00
			CHANNELS 3 Zrotation Xrotation Yrotation
            JOINT Neck
            {
                OFFSET	 0.00	 2.48462964506057	 0.00
                CHANNELS 3 Zrotation Xrotation Yrotation
                JOINT Head
                {
                    OFFSET	 0.00	 0.927524780924562	 0.00
                    CHANNELS 3 Zrotation Xrotation Yrotation
                    End Site 
                    {
                        OFFSET	 0.00	 1.14999962169752	 0.00
                    }
                }
            }
			JOINT LeftShoulder
			{
				OFFSET	 0.00	 2.48462964506057	 0.00
				CHANNELS 3 Zrotation Xrotation Yrotation
				JOINT LeftUpArm
				{
					OFFSET	 0.00	 1.24881979654096	 0.00
					CHANNELS 3 Zrotation Xrotation Yrotation
					JOINT LeftForeArm
					{
						OFFSET	 0.00	2.59758046908119	 0.00
						CHANNELS 3 Zrotation Xrotation Yrotation
						JOINT LeftHand
						{
							OFFSET	 0.00	2.45542024364365	 0.00
							CHANNELS 3 Zrotation Xrotation Yrotation
							JOINT LeftHandThumb 
							{
								OFFSET	 0.00	0.00	 0.00
								CHANNELS 3 Zrotation Xrotation Yrotation
								End Site
								{
									OFFSET	 0.00	0.00	1.00000003353624
								}
							}
							JOINT L_Wrist_End 
							{
								OFFSET	 0.00	0.99999967115358	 0.00
								CHANNELS 3 Zrotation Xrotation Yrotation
								End Site 
								{
									OFFSET	 0.00	 0.00	 0.00
								}
							}
						}
					}
				}
			}
			JOINT RightShoulder
			{
				OFFSET	 0.00	 2.48462964506057	 0.00
				CHANNELS 3 Zrotation Xrotation Yrotation
				JOINT RightUpArm
				{
					OFFSET	 0.00	 1.24881979654096	 0.00
					CHANNELS 3 Zrotation Xrotation Yrotation
					JOINT RightForeArm
					{
						OFFSET	 0.00	2.59758046908119	 0.00
						CHANNELS 3 Zrotation Xrotation Yrotation
						JOINT RightHand
						{
							OFFSET	 0.00	2.45542024364365	 0.00
							CHANNELS 3 Zrotation Xrotation Yrotation
							JOINT RightHandThumb 
							{
								OFFSET	 0.00	0.00	 0.00
								CHANNELS 3 Zrotation Xrotation Yrotation
								End Site
								{
									OFFSET	 0.00	0.00	1.00000003353624
								}
							}
							JOINT R_Wrist_End 
							{
								OFFSET	 0.00	0.99999967115358	 0.00
								CHANNELS 3 Zrotation Xrotation Yrotation
								End Site 
								{
									OFFSET	 0.00	 0.00	 0.00
								}
							}
						}
					}
				}
			}
		}
	}
	JOINT LeftUpLeg
	{
		OFFSET	 1.2719394002717	 0.00	 0.00
		CHANNELS 3 Zrotation Xrotation Yrotation
		JOINT LeftLowLeg
		{
			OFFSET	 0.00	-4.3429100912261	 0.00
			CHANNELS 3 Zrotation Xrotation Yrotation
			JOINT LeftFoot
			{
				OFFSET	 0.00	-4.48767017425826	 0.00
				CHANNELS 3 Zrotation Xrotation Yrotation
				JOINT LeftToeBase
                {
                    OFFSET	 0.00	0.00	 1.51507020887566
                    CHANNELS 3 Zrotation Xrotation Yrotation
                    End Site 
                    {
                        OFFSET	 0.00	0.00	 0.75000010571191
                    }
                }
			}
		}
	}
	JOINT RightUpLeg
	{
		OFFSET	 -1.2719393604653	 0.00	 0.00
		CHANNELS 3 Zrotation Xrotation Yrotation
		JOINT RightLowLeg
		{
			OFFSET	 0.00	-4.3429100912261	 0.00
			CHANNELS 3 Zrotation Xrotation Yrotation
			JOINT RightFoot
			{
				OFFSET	 0.00	-4.48767017425826	 0.00
				CHANNELS 3 Zrotation Xrotation Yrotation
				JOINT RightToeBase
                {
                    OFFSET	 0.00	0.00	 1.51507020887566
                    CHANNELS 3 Zrotation Xrotation Yrotation
                    End Site 
                    {
                        OFFSET	 0.00	0.00	 0.749999965609858
                    }
                }   
			}
		}
	}
}
MOTION 
Frames:	8 
Frame Time: 0.02 
 0.8002239990234375 2.9911700439453126 9.794730224609374 -151.181 82.058 152.789 2.48381 -8.74933 -1.97709 -0.702396 3.53684 -2.16759 -2.28354 38.8531 3.26532 11.7851 -44.633 7.62117 -89.71177 -16.5408 -4.77531 -9.39007 5.79061 -28.9167 0.0 20.5084 0.0 31.3439 -8.78507 29.3427 0.0 0.0 0.0 0.0 0.0 0.0 98.0384 -13.075 1.64451 4.59647 3.03996 30.6456 0.0 18.8873 0.0 -17.0963 -0.478703 -28.9467 0.0 0.0 0.0 0.0 0.0 0.0 5.35576 -4.6758 -0.292637 0.0 7.37629 0.0 9.73106 4.9406996 0.0761879 0.0 -32.521698 0.0 3.99274 -2.91538 5.24306 0.0 6.30655 0.0 10.4958 8.623671 -9.12732 0.0 -26.5042 0.0 
  0.8009799957275391 2.991619873046875 9.794810180664063 -151.179 82.0608 152.777 2.48556 -8.74721 -1.98084 -0.699585 3.55438 -2.17169 -2.30897 38.8659 3.29328 11.7939 -44.6643 7.61484 -89.71441 -16.5456 -4.77082 -9.39232 5.79272 -28.9247 0.0 20.4914 0.0 31.3303 -8.79223 29.3781 0.0 0.0 0.0 0.0 0.0 0.0 98.04457 -13.0664 1.64396 4.57858 3.05317 30.6181 0.0 18.8664 0.0 -17.1061 -0.477097 -28.9283 0.0 0.0 0.0 0.0 0.0 0.0 5.34917 -4.67598 -0.295271 0.0 7.38351 0.0 9.75458 4.9383 0.0954119 0.0 -32.5198 0.0 3.98675 -2.91577 5.2284 0.0 6.30647 0.0 10.4886 8.6269 -9.11287 0.0 -26.498299 0.0 
  0.8030439758300781 2.9927398681640627 9.794860229492187 -151.182 82.0649 152.758 2.45708 -8.74696 -2.01554 -0.625611 3.6038 -2.19909 -2.34532 38.8408 3.30581 11.6957 -44.6654 7.565 -89.74448 -16.5933 -4.78835 -9.42289 5.7804 -28.9811 0.0 20.4845 0.0 31.3639 -8.79403 29.382 0.0 0.0 0.0 0.0 0.0 0.0 98.01749 -13.0104 1.63306 4.56528 3.06592 30.6649 0.0 18.8755 0.0 -17.1205 -0.519082 -28.9602 0.0 0.0 0.0 0.0 0.0 0.0 5.33389 -4.67322 -0.308106 0.0 7.37998 0.0 9.75232 4.9529 0.12499 0.0 -32.518898 0.0 3.97154 -2.91683 5.24876 0.0 6.29607 0.0 10.5117 8.63861 -9.10454 0.0 -26.5026 0.0 
  0.8044930267333984 2.9932598876953125 9.795050048828125 -151.207 82.0569 152.741 2.4969 -8.74646 -1.98216 -0.686852 3.6011 -2.17536 -2.26847 38.8679 3.20544 11.711 -44.6654 7.59169 -89.7246 -16.5392 -4.76936 -9.38226 5.74479 -28.9404 0.0 20.4999 0.0 31.4113 -8.82435 29.373 0.0 0.0 0.0 0.0 0.0 0.0 98.03766 -13.0412 1.62801 4.60911 3.06763 30.761 0.0 18.9261 0.0 -17.1531 -0.564503 -28.8764 0.0 0.0 0.0 0.0 0.0 0.0 5.3273 -4.6614 -0.304811 0.0 7.3552 0.0 9.74784 4.9623003 0.154737 0.0 -32.497498 0.0 3.96524 -2.92638 5.24939 0.0 6.28313 0.0 10.4858 8.670401 -9.0855 0.0 -26.5009 0.0 
  0.8056529998779297 2.994159851074219 9.7952099609375 -151.296 82.0412 152.812 2.45089 -8.76209 -2.01489 -0.59202 3.62227 -2.19641 -2.35569 38.8587 3.30246 11.687 -44.6743 7.535 -89.804504 -16.593 -4.78119 -9.32103 5.75693 -28.845 0.0 20.4885 0.0 31.4187 -8.83939 29.3789 0.0 0.0 0.0 0.0 0.0 0.0 98.00503 -13.0009 1.61165 4.60615 3.08831 30.803 0.0 18.9537 0.0 -17.1016 -0.556354 -29.0049 0.0 0.0 0.0 0.0 0.0 0.0 5.3172 -4.68326 -0.290246 0.0 7.35643 0.0 9.75234 4.9732 0.157339 0.0 -32.499702 0.0 3.95702 -2.95275 5.28709 0.0 6.28224 0.0 10.5162 8.67819 -9.09871 0.0 -26.4673 0.0 
  0.8071440124511718 2.9954998779296873 9.795189819335938 -151.324 82.0334 152.822 2.48642 -8.74128 -1.98126 -0.65494 3.5872 -2.17174 -2.29347 38.9004 3.23485 11.7618 -44.6458 7.54568 -89.75884 -16.528 -4.76937 -9.30849 5.74479 -28.8411 0.0 20.5149 0.0 31.3882 -8.82188 29.3729 0.0 0.0 0.0 0.0 0.0 0.0 98.0543 -13.0474 1.62599 4.6011 3.08692 30.761 0.0 18.9431 0.0 -17.163 -0.525628 -29.3457 0.0 0.0 0.0 0.0 0.0 0.0 5.30824 -4.70685 -0.287256 0.0 7.37885 0.0 9.77721 4.9655 0.181952 0.0 -32.5107 0.0 3.94623 -2.9722 5.27247 0.0 6.28267 0.0 10.5269 8.68437 -9.06149 0.0 -26.4713 0.0 
  0.8076779937744141 2.9960101318359373 9.795130004882813 -151.334 82.0349 152.824 2.47882 -8.73744 -1.98004 -0.644243 3.59148 -2.16854 -2.28372 38.9102 3.21816 11.7582 -44.6313 7.53606 -89.76065 -16.5138 -4.77506 -9.31428 5.73444 -28.909 0.0 20.5417 0.0 31.3684 -8.8291 29.3871 0.0 0.0 0.0 0.0 0.0 0.0 98.04785 -13.0604 1.62729 4.62277 3.10392 30.7907 0.0 18.9385 0.0 -17.1395 -0.540163 -29.3126 0.0 0.0 0.0 0.0 0.0 0.0 5.30395 -4.71383 -0.296721 0.0 7.39397 0.0 9.76906 4.957 0.188538 0.0 -32.4855 0.0 3.93804 -2.97133 5.24846 0.0 6.27251 0.0 10.5217 8.69963 -9.03213 0.0 -26.4597 0.0 
  0.8093460083007813 2.99802001953125 9.795339965820313 -151.317 82.0321 152.787 2.47357 -8.71578 -1.98423 -0.622012 3.59309 -2.17143 -2.23832 38.8793 3.14786 11.7078 -44.5224 7.48772 -89.76503 -16.5126 -4.74907 -9.31283 5.74114 -29.0312 0.0 20.5816 0.0 31.3815 -8.83454 29.4627 0.0 0.0 0.0 0.0 0.0 0.0 98.05284 -13.0509 1.59159 4.6506 3.10645 30.8547 0.0 18.9541 0.0 -17.1689 -0.624882 -29.355 0.0 0.0 0.0 0.0 0.0 0.0 5.29429 -4.74079 -0.337738 0.0 7.42916 0.0 9.77298 4.9622 0.249593 0.0 -32.488503 0.0 3.92196 -3.00785 5.31678 0.0 6.31332 0.0 10.6133 8.70937 -9.01121 0.0 -26.4685 0.0 
